<svg width="496" height="165" viewBox="0 0 496 165" fill="none" xmlns="http://www.w3.org/2000/svg">
<path d="M27.6565 82.7603C27.6565 68.8926 37.0375 57.4722 49.6815 54.2093L38.669 33C18.2755 40.3417 4 59.9195 4 82.7603C4 105.601 18.6834 125.179 39.0769 132.521L50.0894 111.311C37.4454 108.048 27.6565 96.6279 27.6565 82.7603Z" fill="#FC4C69"/>
<path d="M87.2057 82.7603C87.2057 96.6279 77.8246 108.048 65.1806 111.311L76.1932 132.521C96.5867 125.179 110.862 105.601 110.862 82.7602C110.862 59.9195 96.1788 40.3417 76.1932 33L64.7728 54.2093C77.4168 57.4722 87.2057 68.8926 87.2057 82.7603Z" fill="#FC4C69"/>
<path d="M149.373 100.25C146.351 100.25 143.585 99.5331 141.126 98.0987C138.667 96.6132 136.721 94.6154 135.337 92.1053C133.954 89.5952 133.237 86.7778 133.237 83.653C133.237 80.6307 133.954 77.8133 135.389 75.3032C136.823 72.8444 138.821 70.8466 141.28 69.4122C143.79 67.9779 146.607 67.2607 149.578 67.2607C151.832 67.2607 154.035 67.773 156.186 68.6951C158.338 69.6684 160.182 70.949 161.719 72.5882C161.924 72.8444 161.924 73.2029 161.719 73.4591L156.852 77.4547C156.699 77.6084 156.545 77.7108 156.34 77.7108C156.135 77.7108 155.93 77.6084 155.828 77.4547C153.215 74.2787 149.015 73.6128 145.48 75.8155C142.407 77.7108 141.28 81.1942 141.433 84.6775C141.587 88.2121 144.148 91.2345 147.529 92.259C150.603 93.181 153.625 92.4639 155.828 90.1075C155.981 90.005 156.135 89.9026 156.34 89.9538C156.545 89.9538 156.699 90.005 156.801 90.1587L161.77 93.6421C161.975 93.8982 161.975 94.2568 161.77 94.5129C160.131 96.2546 158.184 97.6889 156.033 98.7134C153.83 99.738 151.576 100.25 149.373 100.25ZM183.541 100.25C180.467 100.25 177.65 99.5331 175.191 98.0987C172.681 96.6644 170.683 94.6154 169.198 92.1565C167.763 89.6465 167.046 86.7778 167.046 83.7043C167.046 80.6819 167.763 77.8645 169.198 75.3544C170.683 72.8444 172.63 70.8466 175.14 69.4122C177.65 67.9779 180.467 67.2607 183.541 67.2607C186.563 67.2607 189.381 67.9779 191.891 69.4122C194.401 70.8466 196.399 72.8444 197.833 75.3544C199.319 77.8645 200.036 80.6819 200.036 83.7043C200.036 86.7778 199.319 89.5952 197.833 92.1053C196.399 94.6154 194.401 96.6132 191.891 98.0987C189.381 99.5331 186.563 100.25 183.541 100.25ZM183.643 92.8737C185.129 92.8737 186.512 92.4639 187.742 91.6955C189.022 90.8759 190.047 89.8001 190.764 88.3658C191.532 86.9827 191.891 85.3947 191.891 83.7043C191.891 82.065 191.532 80.477 190.764 79.0939C190.047 77.7108 189.022 76.6351 187.742 75.8155C186.512 75.0471 185.129 74.6373 183.643 74.6373C182.107 74.6373 180.724 75.0471 179.443 75.8155C178.111 76.6351 177.087 77.7108 176.318 79.0939C175.55 80.5282 175.191 82.065 175.191 83.7043C175.191 85.3947 175.55 86.9827 176.318 88.3658C177.138 89.7489 178.162 90.8759 179.443 91.6443C180.724 92.4639 182.107 92.8737 183.643 92.8737ZM205.824 100.25C205.414 100.25 205.158 99.9429 205.158 99.5843V68.9C205.158 68.5414 205.414 68.234 205.824 68.234H217.453C220.526 68.234 223.344 68.9 225.802 70.2831C228.261 71.6149 230.157 73.5103 231.54 75.9691C232.872 78.3768 233.589 81.143 233.589 84.2165C233.589 87.3413 232.872 90.1075 231.488 92.5151C230.105 94.9739 228.159 96.8693 225.649 98.2012C223.19 99.5843 220.321 100.25 217.196 100.25H205.824ZM213.098 93.0786H217.606C219.092 93.0786 220.475 92.72 221.653 92.0028C222.831 91.2345 223.805 90.2099 224.47 88.8781C225.136 87.5462 225.495 86.0094 225.495 84.2677C225.495 82.5773 225.136 80.9893 224.419 79.6574C223.702 78.2743 222.729 77.2498 221.499 76.4814C220.27 75.7642 218.836 75.3544 217.299 75.3544H213.098V93.0786ZM238.711 100.25V69.5659C238.711 68.2853 238.967 68.0291 239.377 68.0291H261.814C262.173 68.0291 262.48 68.2853 262.48 68.6438V74.4324C262.48 74.7909 262.173 75.0983 261.814 75.0983H246.651V80.4258H256.231C256.589 80.4258 256.896 80.7332 256.896 81.0917V86.829C256.896 87.1876 256.589 87.495 256.231 87.495H246.651V92.9761H261.763C262.122 92.9761 262.429 93.2835 262.429 93.6421V99.3794C262.429 99.738 262.122 100.045 261.763 100.045H239.377C238.967 100.045 238.711 99.738 238.711 100.25ZM282.1 100.25C281.741 100.25 281.434 99.9429 281.434 99.5843V68.9C281.434 68.5414 281.741 68.234 282.1 68.234H288.759C289.118 68.234 289.425 68.5414 289.425 68.9V81.5015H301.002V68.9C301.002 68.5414 301.309 68.234 301.668 68.234H308.327C308.686 68.234 308.993 68.5414 308.993 68.9V99.5843C308.993 99.9429 308.686 100.25 308.327 100.25H301.668C301.309 100.25 301.002 99.9429 301.002 99.5843V88.5707H289.425V99.5843C289.425 99.9429 289.118 100.25 288.759 100.25H282.1ZM330.611 100.25C327.537 100.25 324.72 99.5331 322.261 98.0987C319.751 96.6644 317.753 94.6154 316.267 92.1565C314.833 89.6465 314.116 86.7778 314.116 83.7043C314.116 80.6819 314.833 77.8645 316.267 75.3544C317.753 72.8444 319.699 70.8466 322.209 69.4122C324.72 67.9779 327.537 67.2607 330.611 67.2607C333.633 67.2607 336.45 67.9779 338.96 69.4122C341.47 70.8466 343.468 72.8444 344.903 75.3544C346.388 77.8645 347.105 80.6819 347.105 83.7043C347.105 86.7778 346.388 89.5952 344.903 92.1053C343.468 94.6154 341.47 96.6132 338.96 98.0987C336.45 99.5331 333.633 100.25 330.611 100.25ZM330.713 92.8737C332.199 92.8737 333.582 92.4639 334.811 91.6955C336.092 90.8759 337.116 89.8001 337.833 88.3658C338.602 86.9827 338.96 85.3947 338.96 83.7043C338.96 82.065 338.602 80.477 337.833 79.0939C337.116 77.7108 336.092 76.6351 334.811 75.8155C333.582 75.0471 332.199 74.6373 330.713 74.6373C329.176 74.6373 327.793 75.0471 326.512 75.8155C325.181 76.6351 324.156 77.7108 323.388 79.0939C322.619 80.5282 322.261 82.065 322.261 83.7043C322.261 85.3947 322.619 86.9827 323.388 88.3658C324.207 89.7489 325.232 90.8759 326.512 91.6443C327.793 92.4639 329.176 92.8737 330.713 92.8737ZM353.918 100.25C353.509 100.25 353.252 99.9429 353.252 99.5843V68.9C353.252 68.5414 353.509 68.234 353.918 68.234H366.417C370.311 68.234 373.384 69.2073 375.536 71.2051C378.712 74.0738 379.787 79.5037 378.251 83.4994C377.687 84.9337 376.714 86.2655 375.484 87.2388C374.767 87.8023 373.999 88.2121 373.23 88.6219C375.433 92.1053 378.763 99.1745 378.763 99.1745C378.814 99.2769 378.917 99.4306 378.917 99.5843C378.917 99.9429 378.609 100.25 378.251 100.25H370.669C370.464 100.25 370.208 100.097 370.106 99.8916L365.649 90.1075C364.061 90.2099 362.832 90.1587 361.192 90.1587V99.5843C361.192 99.9429 360.885 100.25 360.526 100.25H353.918ZM361.192 83.0383C361.192 83.0383 367.647 83.7555 369.901 82.2699C370.772 81.7064 371.284 80.3233 371.284 79.2988C371.233 78.1719 370.669 76.9937 369.747 76.2765C368.774 75.4569 366.366 75.2008 365.137 75.2008L361.192 75.3032V83.0383ZM384.756 100.25C384.398 100.25 384.09 99.9429 384.09 99.5843V68.9C384.09 68.5414 384.398 68.234 384.756 68.234H391.416C391.774 68.234 392.082 68.5414 392.082 68.9V99.5843C392.082 99.9429 391.774 100.25 391.416 100.25H384.756ZM397.87 100.25C397.512 100.25 397.204 99.9429 397.204 99.5843V94.9227C397.204 94.769 397.255 94.6154 397.358 94.4617L410.83 75.3544H398.434C398.075 75.3544 397.768 75.0471 397.768 74.6885V68.9C397.768 68.5414 398.075 68.234 398.434 68.234H420.666C421.024 68.234 421.332 68.5414 421.332 68.9V73.5615C421.332 73.664 421.28 73.8177 421.178 73.9713L407.808 93.1298H420.922C421.127 93.1298 421.28 93.2323 421.383 93.3347C421.536 93.4372 421.588 93.6421 421.588 93.7958L421.536 99.5843C421.536 99.9429 421.28 100.25 420.871 100.25H397.87ZM443.205 100.25C440.131 100.25 437.314 99.5331 434.855 98.0987C432.345 96.6644 430.347 94.6154 428.862 92.1565C427.427 89.6465 426.71 86.7778 426.71 83.7043C426.71 80.6819 427.427 77.8645 428.862 75.3544C430.347 72.8444 432.294 70.8466 434.804 69.4122C437.314 67.9779 440.131 67.2607 443.205 67.2607C446.227 67.2607 449.045 67.9779 451.555 69.4122C454.065 70.8466 456.063 72.8444 457.497 75.3544C458.983 77.8645 459.7 80.6819 459.7 83.7043C459.7 86.7778 458.983 89.5952 457.497 92.1053C456.063 94.6154 454.065 96.6132 451.555 98.0987C449.045 99.5331 446.227 100.25 443.205 100.25ZM443.307 92.8737C444.793 92.8737 446.176 92.4639 447.406 91.6955C448.686 90.8759 449.711 89.8001 450.428 88.3658C451.196 86.9827 451.555 85.3947 451.555 83.7043C451.555 82.065 451.196 80.477 450.428 79.0939C449.711 77.7108 448.686 76.6351 447.406 75.8155C446.176 75.0471 444.793 74.6373 443.307 74.6373C441.771 74.6373 440.388 75.0471 439.107 75.8155C437.775 76.6351 436.751 77.7108 435.982 79.0939C435.214 80.5282 434.855 82.065 434.855 83.7043C434.855 85.3947 435.214 86.9827 435.982 88.3658C436.802 89.7489 437.826 90.8759 439.107 91.6443C440.388 92.4639 441.771 92.8737 443.307 92.8737ZM465.488 100.25C465.13 100.25 464.822 99.9429 464.822 99.5843V68.9C464.822 68.5414 465.13 68.234 465.488 68.234H471.533C471.738 68.234 471.943 68.3365 472.096 68.4902L483.878 86.6754V68.9C483.878 68.5414 484.186 68.234 484.544 68.234H490.845C491.204 68.234 491.511 68.5414 491.511 68.9V99.5843C491.511 99.9429 491.204 100.25 490.845 100.25H484.8C484.596 100.25 484.391 100.148 484.237 99.9941L472.506 81.9113V99.5843C472.506 99.9429 472.199 100.25 471.84 100.25H465.488Z" fill="#65605F"/>
</svg>
