<svg width="495" height="165" viewBox="0 0 495 165" fill="none" xmlns="http://www.w3.org/2000/svg">
<path d="M147.484 99C144.442 99 141.658 98.2826 139.183 96.8478C136.709 95.3618 134.75 93.3633 133.358 90.8525C131.966 88.3416 131.244 85.5233 131.244 82.3975C131.244 79.3742 131.966 76.5559 133.409 74.045C134.853 71.5854 136.863 69.5869 139.338 68.1521C141.864 66.7174 144.7 66 147.69 66C149.958 66 152.175 66.5124 154.34 67.4348C156.506 68.4084 158.362 69.6894 159.908 71.3292C160.115 71.5854 160.115 71.9441 159.908 72.2003L155.011 76.1972C154.856 76.3509 154.701 76.4534 154.495 76.4534C154.289 76.4534 154.083 76.3509 153.979 76.1972C151.35 73.0202 147.123 72.354 143.565 74.5574C140.472 76.4534 139.338 79.9379 139.493 83.4223C139.647 86.958 142.225 89.9813 145.628 91.0062C148.721 91.9285 151.763 91.2112 153.979 88.854C154.134 88.7515 154.289 88.649 154.495 88.7003C154.701 88.7003 154.856 88.7515 154.959 88.9052L159.96 92.3897C160.166 92.6459 160.166 93.0046 159.96 93.2608C158.31 95.0031 156.351 96.4379 154.186 97.4627C151.969 98.4875 149.7 99 147.484 99ZM181.871 99C178.777 99 175.942 98.2826 173.467 96.8478C170.941 95.413 168.93 93.3633 167.435 90.9037C165.992 88.3928 165.27 85.5233 165.27 82.4487C165.27 79.4254 165.992 76.6071 167.435 74.0962C168.93 71.5854 170.889 69.5869 173.416 68.1521C175.942 66.7174 178.777 66 181.871 66C184.912 66 187.748 66.7174 190.274 68.1521C192.8 69.5869 194.811 71.5854 196.254 74.0962C197.749 76.6071 198.471 79.4254 198.471 82.4487C198.471 85.5233 197.749 88.3416 196.254 90.8525C194.811 93.3633 192.8 95.3618 190.274 96.8478C187.748 98.2826 184.912 99 181.871 99ZM181.974 91.6211C183.469 91.6211 184.861 91.2112 186.098 90.4425C187.387 89.6226 188.418 88.5466 189.14 87.1118C189.913 85.7282 190.274 84.1397 190.274 82.4487C190.274 80.809 189.913 79.2205 189.14 77.8369C188.418 76.4534 187.387 75.3773 186.098 74.5574C184.861 73.7888 183.469 73.3789 181.974 73.3789C180.427 73.3789 179.035 73.7888 177.746 74.5574C176.406 75.3773 175.375 76.4534 174.601 77.8369C173.828 79.2717 173.467 80.809 173.467 82.4487C173.467 84.1397 173.828 85.7282 174.601 87.1118C175.426 88.4953 176.457 89.6226 177.746 90.3913C179.035 91.2111 180.427 91.6211 181.974 91.6211ZM204.297 99C203.884 99 203.627 98.6925 203.627 98.3338V67.6397C203.627 67.281 203.884 66.9736 204.297 66.9736H216C219.093 66.9736 221.929 67.6397 224.403 69.0233C226.878 70.3556 228.785 72.2515 230.177 74.7112C231.518 77.1195 232.24 79.8866 232.24 82.9611C232.24 86.0869 231.518 88.854 230.126 91.2624C228.734 93.722 226.775 95.618 224.249 96.9503C221.774 98.3338 218.887 99 215.742 99H204.297ZM211.618 91.8261H216.154C217.65 91.8261 219.042 91.4674 220.227 90.75C221.413 89.9813 222.393 88.9565 223.063 87.6242C223.733 86.2919 224.094 84.7546 224.094 83.0124C224.094 81.3214 223.733 79.7329 223.011 78.4006C222.289 77.0171 221.31 75.9922 220.073 75.2236C218.835 74.5062 217.392 74.0962 215.845 74.0962H211.618V91.8261ZM237.395 99V68.3059C237.395 67.0248 237.653 66.7686 238.065 66.7686H260.646C261.007 66.7686 261.316 67.0248 261.316 67.3835V73.1739C261.316 73.5326 261.007 73.84 260.646 73.84H245.386V79.1692H255.027C255.388 79.1692 255.697 79.4767 255.697 79.8354V85.5745C255.697 85.9332 255.388 86.2407 255.027 86.2407H245.386V91.7236H260.595C260.955 91.7236 261.265 92.031 261.265 92.3897V98.1289C261.265 98.4875 260.955 98.795 260.595 98.795H238.065C237.653 98.795 237.395 98.4875 237.395 99ZM281.062 99C280.701 99 280.392 98.6925 280.392 98.3338V67.6397C280.392 67.281 280.701 66.9736 281.062 66.9736H287.764C288.125 66.9736 288.434 67.281 288.434 67.6397V80.2453H300.085V67.6397C300.085 67.281 300.395 66.9736 300.756 66.9736H307.458C307.819 66.9736 308.128 67.281 308.128 67.6397V98.3338C308.128 98.6925 307.819 99 307.458 99H300.756C300.395 99 300.085 98.6925 300.085 98.3338V87.3167H288.434V98.3338C288.434 98.6925 288.125 99 287.764 99H281.062ZM329.884 99C326.791 99 323.955 98.2826 321.481 96.8478C318.955 95.413 316.944 93.3633 315.449 90.9037C314.005 88.3928 313.283 85.5233 313.283 82.4487C313.283 79.4254 314.005 76.6071 315.449 74.0962C316.944 71.5854 318.903 69.5869 321.429 68.1521C323.955 66.7174 326.791 66 329.884 66C332.926 66 335.761 66.7174 338.288 68.1521C340.814 69.5869 342.824 71.5854 344.268 74.0962C345.763 76.6071 346.485 79.4254 346.485 82.4487C346.485 85.5233 345.763 88.3416 344.268 90.8525C342.824 93.3633 340.814 95.3618 338.288 96.8478C335.761 98.2826 332.926 99 329.884 99ZM329.987 91.6211C331.482 91.6211 332.874 91.2112 334.112 90.4425C335.4 89.6226 336.432 88.5466 337.153 87.1118C337.927 85.7282 338.288 84.1397 338.288 82.4487C338.288 80.809 337.927 79.2205 337.153 77.8369C336.432 76.4534 335.4 75.3773 334.112 74.5574C332.874 73.7888 331.482 73.3789 329.987 73.3789C328.441 73.3789 327.049 73.7888 325.76 74.5574C324.419 75.3773 323.388 76.4534 322.615 77.8369C321.842 79.2717 321.481 80.809 321.481 82.4487C321.481 84.1397 321.842 85.7282 322.615 87.1118C323.44 88.4953 324.471 89.6226 325.76 90.3913C327.049 91.2111 328.441 91.6211 329.987 91.6211ZM353.341 99C352.929 99 352.671 98.6925 352.671 98.3338V67.6397C352.671 67.281 352.929 66.9736 353.341 66.9736H365.921C369.839 66.9736 372.932 67.9472 375.098 69.9456C378.294 72.8152 379.377 78.2469 377.83 82.2438C377.263 83.6785 376.283 85.0108 375.046 85.9844C374.324 86.5481 373.551 86.958 372.778 87.368C374.994 90.8525 378.346 97.9239 378.346 97.9239C378.397 98.0264 378.5 98.1801 378.5 98.3338C378.5 98.6925 378.191 99 377.83 99H370.2C369.994 99 369.736 98.8462 369.633 98.6413L365.148 88.854C363.549 88.9565 362.312 88.9052 360.662 88.9052V98.3338C360.662 98.6925 360.353 99 359.992 99H353.341ZM360.662 81.7826C360.662 81.7826 367.158 82.5 369.427 81.0139C370.303 80.4503 370.819 79.0667 370.819 78.0419C370.767 76.9146 370.2 75.736 369.272 75.0186C368.292 74.1987 365.869 73.9425 364.632 73.9425L360.662 74.045V81.7826ZM384.377 99C384.017 99 383.707 98.6925 383.707 98.3338V67.6397C383.707 67.281 384.017 66.9736 384.377 66.9736H391.08C391.44 66.9736 391.75 67.281 391.75 67.6397V98.3338C391.75 98.6925 391.44 99 391.08 99H384.377ZM397.575 99C397.215 99 396.905 98.6925 396.905 98.3338V93.6708C396.905 93.5171 396.957 93.3633 397.06 93.2096L410.619 74.0962H398.143C397.782 74.0962 397.472 73.7888 397.472 73.4301V67.6397C397.472 67.281 397.782 66.9736 398.143 66.9736H420.517C420.878 66.9736 421.187 67.281 421.187 67.6397V72.3028C421.187 72.4052 421.136 72.559 421.033 72.7127L407.577 91.8773H420.775C420.981 91.8773 421.136 91.9798 421.239 92.0823C421.394 92.1848 421.445 92.3897 421.445 92.5434L421.394 98.3338C421.394 98.6925 421.136 99 420.723 99H397.575ZM443.201 99C440.108 99 437.273 98.2826 434.798 96.8478C432.272 95.413 430.261 93.3633 428.766 90.9037C427.322 88.3928 426.601 85.5233 426.601 82.4487C426.601 79.4254 427.322 76.6071 428.766 74.0962C430.261 71.5854 432.22 69.5869 434.746 68.1521C437.273 66.7174 440.108 66 443.201 66C446.243 66 449.079 66.7174 451.605 68.1521C454.131 69.5869 456.142 71.5854 457.585 74.0962C459.08 76.6071 459.802 79.4254 459.802 82.4487C459.802 85.5233 459.08 88.3416 457.585 90.8525C456.142 93.3633 454.131 95.3618 451.605 96.8478C449.079 98.2826 446.243 99 443.201 99ZM443.304 91.6211C444.799 91.6211 446.191 91.2112 447.429 90.4425C448.718 89.6226 449.749 88.5466 450.471 87.1118C451.244 85.7282 451.605 84.1397 451.605 82.4487C451.605 80.809 451.244 79.2205 450.471 77.8369C449.749 76.4534 448.718 75.3773 447.429 74.5574C446.191 73.7888 444.799 73.3789 443.304 73.3789C441.758 73.3789 440.366 73.7888 439.077 74.5574C437.737 75.3773 436.705 76.4534 435.932 77.8369C435.159 79.2717 434.798 80.809 434.798 82.4487C434.798 84.1397 435.159 85.7282 435.932 87.1118C436.757 88.4953 437.788 89.6226 439.077 90.3913C440.366 91.2111 441.758 91.6211 443.304 91.6211ZM465.628 99C465.267 99 464.957 98.6925 464.957 98.3338V67.6397C464.957 67.281 465.267 66.9736 465.628 66.9736H471.711C471.917 66.9736 472.123 67.0761 472.278 67.2298L484.136 85.4208V67.6397C484.136 67.281 484.445 66.9736 484.806 66.9736H491.147C491.508 66.9736 491.817 67.281 491.817 67.6397V98.3338C491.817 98.6925 491.508 99 491.147 99H485.064C484.857 99 484.651 98.8975 484.497 98.7438L472.691 80.6552V98.3338C472.691 98.6925 472.381 99 472.02 99H465.628Z" fill="white"/>
<path d="M24.9904 82.168C24.9904 68.2335 34.4713 56.7581 47.2499 53.4794L36.1201 32.168C15.5095 39.545 1.08199 59.2172 1.08199 82.168C1.08199 105.119 15.9217 124.791 36.5324 132.168L47.6621 110.856C34.8835 107.578 24.9904 96.1024 24.9904 82.168Z" fill="white"/>
<path d="M85.1736 82.168C85.1736 96.1024 75.6927 107.578 62.914 110.856L74.0438 132.168C94.6545 124.791 109.082 105.119 109.082 82.168C109.082 59.2172 94.2423 39.545 74.0438 32.168L62.5018 53.4794C75.2805 56.7581 85.1736 68.2335 85.1736 82.168Z" fill="white"/>
</svg>
