<svg width="367" height="367" viewBox="0 0 367 367" fill="none" xmlns="http://www.w3.org/2000/svg">
<path d="M104.206 175.847C104.206 139.382 128.874 109.351 162.122 100.771L133.164 45C79.5382 64.3053 42 115.786 42 175.847C42 235.908 80.6107 287.389 134.237 306.695L163.195 250.924C129.947 242.344 104.206 212.313 104.206 175.847Z" fill="#FC4C69"/>
<path d="M260.794 175.847C260.794 212.313 236.126 242.344 202.878 250.924L231.836 306.695C285.462 287.389 323 235.908 323 175.847C323 115.786 284.389 64.3053 231.836 45L201.805 100.771C235.053 109.351 260.794 139.382 260.794 175.847Z" fill="#FC4C69"/>
</svg>
