<svg width="367" height="367" viewBox="0 0 367 367" fill="none" xmlns="http://www.w3.org/2000/svg">
<path d="M105.206 175.847C105.206 139.382 129.874 109.351 163.122 100.771L134.164 45C80.5382 64.3053 43 115.786 43 175.847C43 235.908 81.6107 287.389 135.237 306.695L164.195 250.924C130.947 242.344 105.206 212.313 105.206 175.847Z" fill="white"/>
<path d="M261.794 175.847C261.794 212.313 237.126 242.344 203.878 250.924L232.836 306.695C286.462 287.389 324 235.908 324 175.847C324 115.786 285.389 64.3053 232.836 45L202.805 100.771C236.053 109.351 261.794 139.382 261.794 175.847Z" fill="white"/>
</svg>
